<?xml version="1.0" encoding="utf-8"?>
<!-- Generator: Adobe Illustrator 26.3.1, SVG Export Plug-In . SVG Version: 6.00 Build 0)  -->
<svg version="1.1" id="Ebene_1" xmlns="http://www.w3.org/2000/svg" xmlns:xlink="http://www.w3.org/1999/xlink" x="0px" y="0px"
	 viewBox="0 0 612 792" style="enable-background:new 0 0 612 792;" xml:space="preserve">
<g>
	<path d="M569.9,396c-20.3,3.6-24.7,21.5-37.2,21.1c-18-0.4-10.1-41,16.4-30.7c13.6,5.2,22.8,0.7,22.8-8.1c0-5.5-4.3-9.2-11.6-9.5
		c-8.8-0.3-10.6,1-29.4,5.3c-11.9,2.7-12.4-12.8,1.8-12.8c8.3,0,15.5,1.4,22.9,2c10.4,0.7,18.8-4.6,17.6-13.1
		c-1-7.4-10.9-11.1-24-7.6c-24.3,6.4-46,13.6-64.4,13c-14.5-0.7-30.8-10.5-46.2-14.4c-8.3-2.2-19.7-2.3-23.2,4.5
		c-4.6,8.8,4.6,15.7,16.7,12.3c24.7-7.1,22.2,20.5,6.7,17.5c-13.4-2.6-13.9-3.5-19.4-4c-5.7-0.6-12.8,0.3-12.2,6.4
		c0.6,6.2,16.1,9.5,29.5,7.2c26.1-4.5,35.3,32.6,18.3,33c-13,0.6-20.7-19.6-37.1-22.7c-15.9-2.9-22.1,8.9-30.1,17.3
		c-2.7,2.9-10.3,9.4-19.4,5.3c-10.1-4.5-0.4-21.4,9.4-36.5c9.2-14.3-1.3-36.8-23.2-40.3c-19.2-3-33.7,10.7-35.8,21.4
		c-1.5,7.1,5.7,22.7,6.6,25c3.3,8.4,1.3,14.4-7,14.4c-8.3,0-11.9-6.1-10.3-14.4c0.4-2.5,6.7-17.8,5.2-25
		c-2.2-10.7-10.7-21.4-29.8-21.4c-22.1,0-33.1,24.7-23.2,40.3c11.2,17.9,18.8,30.5,9.4,35.6c-7.2,3.9-17.1,2.7-19.8-11.8
		c-11-60.9-22.6-68.8-35-64.5c-7.9,2.7-6,13.7,3.9,35.8c3.3,7.4,17.3,42-3.3,45c-9.7,1.4-18.9-3.9-24.3-16
		c9.2-14.7,11.9-25.8,7.4-40.7s-21.2-24.1-40.2-22.2c-19.2,2-29.9,14.7-46.9,13.9c-14.5-0.7-30.7-10-46-13.9
		c-8.3-2.2-19.7-2.3-23.2,4.5c-4.6,8.8,4.6,15.7,16.7,12.3c24.7-7.1,22.2,20.5,6.7,17.5c-13.4-2.6-13.9-3.5-19.4-4
		c-5.7-0.6-12.2,0.4-12.2,6.4c0,7.2,16.1,9.5,29.5,7.2c26.1-4.5,35.3,32.6,18.3,33c-13,0.6-20.7-19.6-37.1-22.7
		c-15.9-2.9-29.8,15.2-37.2,26.6h1.2c7.2-11.4,20.1-20.9,35.8-17.3c8.9,1.9,16.1,6.1,22.9,9.8c7.9,4.6,15.5,8.8,24.3,8.8
		c27.7,0,25.8-35.4-2.4-41.3c-6.7-1.3-14.7-1.2-22.1,0.7c-13,3.2-26.4,1.9-25.2-4.9c1-5.6,9.7-4.3,22.8-0.9
		c13.9,3.6,27.3-0.1,27.3-12.4c0-8.5-7.4-12.8-17.1-12.7c-4.9,0.1-12.8,3.5-16.1,4.2c-5.8,1.3-10.3-1.7-10.3-7.5
		c0-5.2,8.5-7.4,16.5-5.6c12.5,2.6,34,12.7,46.3,13.3c15.8,0.7,28.6-11.4,47.2-13.1c23.8-2.3,45.3,37.8,31.7,58.9
		c-6.9-23.1-13.1-35.9-38-35.9c-17,0-32.9,10.5-29.8,31.3c1.9,12.8,12.2,22.1,26.2,24.8c16.1,3.2,29.1-1.6,35.6-10.2
		c7.4,8.2,21.2,11.1,29.2,10c26.7-3.8,24.7-20.1,14.9-41.7c-4.2-9.2-20.4-34.2-12.7-38.8c6.9-4,24,1,31.1,62.8
		c1.9,16.7,19.7,22.2,31.9,13.6c8.6-6.1,11.5-14.9,1-38.2c-6.9-15.3-17.9-38.7,3.6-38.7c18.8,0,18.9,9.7,17.4,20.8
		c-0.9,6.8-4.8,22.1-5.2,24.4c-2.2,11.8,13.7,16.2,22.6,16.2s21.2-5.1,18.8-16.2c-0.6-2.5-4.8-17.6-5.1-24.4
		c-0.4-10.8,3.6-23.4,22.5-20.3c21.3,3.5,10.1,23.5,2.1,38.7c-12.2,23.4-6,36.8,7.7,41c12.1,3.8,21.6-5.1,24.4-7.4
		c7.9-7.1,13.1-13.9,28.8-10.2c8.9,1.9,16.1,6.1,22.9,9.8c7.9,4.6,15.5,8.8,24.3,8.8c27.7,0,25.8-35.4-2.4-41.3
		c-6.7-1.3-14.7-1.2-22.1,0.7c-13,3.2-26.4,1.9-25.2-4.9c1-5.6,9.7-4.3,22.8-0.9c13.9,3.6,27.3-0.1,27.3-12.4
		c0-8.5-7.4-12.8-17.1-12.7c-4.9,0.1-12.8,3.5-16.1,4.2c-5.8,1.3-1.8-14.9,6.3-13.1c12.5,2.6,33.8,13.1,46.5,13.6
		c21,1.2,51.4-8.9,65-12c15.6-3.5,17.6,18.5,4.3,17.5c-8.9-0.7-12.5-4.3-25.3-5.9c-23.8-2.9-23.5,27.4-3.7,22.5
		c1.5-0.4,3.4-1,5.5-1.7c12.7-4.3,25.9-8.2,28.2,1.7c1.2,5.5-2.7,8.8-11.8,5.6c-7.2-2.5-14.9-3.9-21.6-2.5
		c-28.3,6.1-30.2,41.6-2.4,41.6c8.8,0,15.2-3.6,23.2-7.9c6.9-3.8,14.2-7.6,23.1-9.7c15.6-3.6,29.5,5.8,35.8,17.6h1
		C600.4,409.3,583,393.7,569.9,396z M154.8,368.9c11.9-0.4,18.2,12.1,23.4,30.2c1.8,6.2,3.3,9.2,5.2,12.4
		C151.8,443.8,117.4,370,154.8,368.9z"/>
</g>
</svg>
