<svg xmlns="http://www.w3.org/2000/svg" version="1.0" preserveAspectRatio="xMidYMid meet" viewBox="56 496.24 1079.85 157.58">

<g transform="translate(0.000000,1200.000000) scale(0.100000,-0.100000)" fill="#000000" stroke="none">
<path d="M4340 7034 c-74 -27 -91 -39 -111 -81 -42 -86 -12 -223 118 -548 124 -309 156 -435 157 -605 1 -97 -1 -109 -29 -165 -47 -95 -121 -131 -247 -122 -126 8 -246 94 -322 230 l-37 65 36 61 c90 153 135 304 135 453 0 207 -54 354 -172 472 -116 116 -266 180 -449 193 -167 11 -303 -22 -543 -134 -201 -94 -264 -114 -377 -120 -158 -9 -250 14 -585 143 -240 92 -348 124 -449 131 -144 10 -244 -27 -285 -107 -64 -125 23 -240 183 -240 38 0 97 7 131 16 38 10 89 15 137 12 64 -2 81 -7 112 -31 49 -37 67 -75 67 -140 0 -40 -6 -63 -26 -94 -58 -89 -115 -95 -354 -38 -239 57 -350 48 -388 -31 -37 -78 20 -147 148 -180 78 -21 270 -23 379 -6 218 36 408 -98 467 -330 47 -182 -42 -312 -190 -279 -74 17 -132 56 -255 175 -188 181 -279 236 -407 244 -138 9 -258 -53 -410 -210 -80 -83 -214 -258 -214 -280 0 -19 17 -5 42 35 39 62 133 155 202 201 177 117 376 120 614 10 42 -19 150 -77 241 -129 222 -126 263 -140 416 -140 111 0 124 2 176 28 150 73 215 241 158 409 -51 153 -159 252 -339 314 -86 30 -323 27 -450 -5 -123 -31 -292 -35 -361 -8 -63 24 -81 46 -77 93 7 87 106 100 327 42 110 -29 142 -33 251 -33 109 0 131 3 175 23 65 30 93 56 121 117 43 92 26 203 -42 267 -55 52 -119 72 -224 72 -83 -1 -108 -5 -199 -37 -194 -68 -292 -36 -291 95 1 68 40 103 136 118 88 15 163 -1 424 -91 381 -131 451 -151 565 -156 133 -7 191 8 433 108 296 123 448 153 580 114 79 -24 197 -110 269 -195 73 -87 150 -231 188 -350 32 -100 45 -281 26 -369 -13 -59 -50 -151 -61 -151 -4 0 -15 28 -25 63 -9 34 -35 107 -56 163 -120 310 -280 424 -594 425 -130 0 -203 -14 -291 -56 -120 -58 -208 -157 -244 -273 -24 -76 -27 -230 -6 -307 39 -149 144 -274 288 -344 110 -54 181 -72 313 -78 190 -9 329 36 445 143 l59 55 52 -41 c64 -50 123 -81 215 -112 91 -30 276 -33 369 -4 135 40 218 101 254 185 66 155 21 343 -178 746 -131 263 -168 358 -178 446 -5 55 -4 59 25 88 25 26 38 31 77 31 215 0 387 -382 480 -1067 21 -151 31 -200 54 -249 36 -78 88 -129 167 -166 139 -65 328 -22 435 100 55 63 73 116 73 217 -1 121 -31 228 -138 485 -130 314 -161 443 -132 543 27 94 90 130 227 130 155 -1 253 -45 292 -131 18 -41 19 -60 14 -176 -5 -105 -15 -170 -51 -331 -62 -269 -60 -303 12 -378 64 -67 173 -111 305 -123 183 -16 350 70 383 197 13 51 12 60 -25 223 -57 244 -64 297 -58 400 11 189 89 291 245 317 119 20 284 -26 335 -93 79 -103 50 -251 -113 -578 -145 -289 -179 -474 -116 -624 51 -122 185 -206 331 -208 127 -2 223 46 376 187 108 99 169 139 244 161 75 21 167 14 289 -21 113 -33 192 -70 391 -184 202 -115 284 -144 415 -144 163 0 269 60 325 184 25 56 27 70 23 154 -3 79 -8 101 -37 158 -60 124 -170 214 -316 260 -99 31 -312 30 -435 -2 -108 -27 -266 -38 -342 -22 -101 21 -149 94 -98 149 11 12 32 25 46 28 45 11 164 -3 289 -34 156 -40 226 -47 312 -33 129 22 212 93 232 196 24 129 -41 235 -167 271 -96 29 -179 22 -325 -25 -70 -22 -138 -41 -150 -41 -44 1 -103 36 -120 73 -53 112 21 187 185 187 86 0 174 -24 444 -124 309 -113 403 -136 558 -136 209 0 436 42 872 160 121 33 242 63 267 66 143 20 249 -123 187 -251 -43 -88 -135 -97 -335 -32 -267 87 -408 89 -508 6 -94 -78 -113 -223 -40 -310 61 -72 145 -77 318 -19 287 97 412 106 477 34 29 -34 41 -98 24 -139 -27 -63 -91 -69 -242 -21 -170 54 -302 58 -427 13 -134 -49 -235 -138 -291 -257 -42 -90 -48 -208 -16 -294 72 -190 307 -256 558 -155 41 16 135 63 208 104 151 85 288 146 384 171 90 23 218 21 300 -5 131 -41 264 -145 338 -265 26 -41 38 -54 40 -42 11 53 -181 295 -303 381 -186 133 -322 147 -509 53 -76 -38 -117 -70 -237 -183 -119 -112 -182 -148 -258 -149 -77 -1 -121 28 -157 100 -24 49 -26 62 -22 142 6 110 34 185 95 252 100 111 207 131 386 72 154 -51 291 -41 349 24 63 72 62 191 -3 251 -48 43 -97 57 -204 56 -84 -1 -132 -9 -305 -52 -112 -28 -217 -51 -232 -51 -90 0 -136 88 -86 168 46 74 160 89 431 56 185 -23 286 -17 356 21 64 35 95 74 111 136 23 90 -19 168 -112 210 -46 21 -67 24 -158 23 -97 -1 -122 -6 -320 -63 -594 -169 -875 -220 -1060 -192 -109 17 -189 43 -425 136 -115 46 -248 95 -295 109 -244 77 -425 47 -482 -81 -50 -112 22 -212 164 -229 38 -4 78 0 139 15 188 46 299 9 330 -109 16 -62 -1 -123 -50 -171 -62 -63 -86 -63 -362 2 -213 49 -333 34 -359 -45 -18 -55 9 -103 79 -138 81 -40 167 -54 311 -49 294 9 310 8 372 -21 146 -68 248 -229 248 -391 0 -95 -25 -148 -84 -176 -104 -51 -189 -14 -377 165 -72 68 -158 142 -191 164 -166 111 -354 105 -500 -16 -26 -21 -89 -89 -141 -149 -135 -158 -187 -194 -294 -203 -73 -6 -136 14 -173 53 -35 38 -39 126 -10 213 28 84 95 217 173 347 77 127 97 173 107 246 13 91 -4 181 -52 279 -142 292 -506 404 -801 248 -72 -38 -181 -142 -220 -210 -76 -132 -69 -220 44 -526 58 -155 65 -229 27 -277 -57 -73 -196 -74 -266 -2 -65 67 -68 148 -13 331 52 172 65 242 59 326 -10 137 -108 285 -235 353 -116 62 -302 84 -428 51 -206 -53 -356 -257 -357 -484 0 -118 17 -171 108 -325 98 -166 179 -335 193 -404 14 -68 0 -124 -41 -163 -32 -30 -112 -58 -162 -58 -78 1 -166 75 -199 167 -9 26 -32 131 -52 233 -115 612 -257 973 -415 1055 -33 17 -124 29 -150 19z m-1012 -564 c61 -28 132 -106 179 -196 52 -99 73 -154 124 -324 22 -74 54 -162 71 -195 l30 -60 -43 -37 c-24 -21 -71 -52 -104 -70 -82 -43 -192 -51 -277 -18 -196 73 -366 326 -385 570 -16 215 98 349 297 349 43 1 79 -6 108 -19z"/>
</g>
</svg>